<svg xmlns="http://www.w3.org/2000/svg" xmlns:xlink="http://www.w3.org/1999/xlink" width="150" height="150" viewBox="0 0 150 150" fill="none"><rect x="0" y="0" width="0" height="0" fill="rgba(249, 249, 249, 1)" /><defs><rect id="path_0" x="0" y="0" width="150" height="150" /><rect id="path_1" x="0" y="0" width="137.94960505339643" height="133.23750130474767" /></defs><g opacity="1" transform="translate(0 0)  rotate(0 75 75)"><mask id="bg-mask-0" fill="white"><use xlink:href="#path_0"></use></mask><g mask="url(#bg-mask-0)" ><g opacity="1" transform="translate(6 8)  rotate(0 68.97480252669821 66.61875065237383)"><mask id="bg-mask-1" fill="white"><use xlink:href="#path_1"></use></mask><g mask="url(#bg-mask-1)" ><path id="路径 1" fill-rule="evenodd" style="fill:#C8B0FF" transform="translate(2.5020349393852612 0)  rotate(0 66.61874994433595 66.61875065237383)" opacity="1" d="M33.31,124.31C53.92,136.21 79.32,136.21 99.93,124.31C120.54,112.41 133.24,90.42 133.24,66.62C133.24,29.85 103.39,0 66.62,0C29.85,0 0,29.85 0,66.62C0,90.42 12.7,112.41 33.31,124.31Z " /><g opacity="1" transform="translate(75.45573493495645 35.26875000000007)  rotate(0 31.246935059219993 21.55312497216797)"><path id="路径 10" fill-rule="evenodd" style="fill:#656769" transform="translate(0.27978443539167586 0)  rotate(0 31.107042841524155 21.553124972167968)" opacity="1" d="M60.36,26.01L62.14,10.69C62.85,4.99 58.22,0 52.52,0L9.77,0C3.72,0 -0.91,5.34 0.15,11.04L2.65,27.07C4.07,36.34 12.27,43.11 21.53,43.11L41.12,43.11C50.74,43.11 58.94,35.62 60.36,26.01Z " /><path id="路径 11" fill-rule="evenodd" style="fill:#87898C" transform="translate(0 0)  rotate(0 25.510650002214014 19.94999997216797)" opacity="1" d="M11.12,39.9L51.02,0L9.7,0C3.64,0 -0.63,5.34 0.08,11.04L2.93,27.07C4,32.42 6.85,37.05 11.12,39.9Z " /></g><g opacity="1" transform="translate(0 34.48168599084748)  rotate(0 31.246935059219993 21.553124972167964)"><path id="路径 10" fill-rule="evenodd" style="fill:#656769" transform="translate(0.27978443539168296 0)  rotate(0 31.107042841524155 21.553124972167968)" opacity="1" d="M60.36,26.01L62.14,10.69C62.85,4.99 58.22,0 52.52,0L9.77,0C3.72,0 -0.91,5.34 0.15,11.04L2.65,27.07C4.07,36.34 12.27,43.11 21.53,43.11L41.12,43.11C50.74,43.11 58.94,35.62 60.36,26.01Z " /><path id="路径 11" fill-rule="evenodd" style="fill:#87898C" transform="translate(0 0)  rotate(0 25.510650002214014 19.94999997216797)" opacity="1" d="M11.12,39.9L51.02,0L9.7,0C3.64,0 -0.63,5.34 0.08,11.04L2.93,27.07C4,32.42 6.85,37.05 11.12,39.9Z " /></g></g></g></g></g></svg>